<svg width="89" height="66" viewBox="0 0 89 66" fill="none" xmlns="http://www.w3.org/2000/svg">
<g clip-path="url(#clip0_1374_36)">
<path d="M50.5485 20.0762L48.8571 18.8861C48.5927 18.6889 48.2546 18.5957 47.9161 18.6269C47.5776 18.6581 47.2662 18.8111 47.0494 19.0528L23.6406 43.8295L24.0022 44.1984L29.7995 39.2716C29.6063 39.2 29.4464 39.0682 29.3477 38.8992C29.2489 38.7302 29.2176 38.5346 29.259 38.3465C29.3004 38.1584 29.4121 37.9896 29.5745 37.8695C29.7369 37.7493 29.9399 37.6854 30.1481 37.6889C30.3359 37.6889 30.5187 37.7443 30.6698 37.8471C30.8208 37.95 30.9321 38.0947 30.9874 38.2601L38.631 31.7268C38.7481 31.6398 38.8939 31.5924 39.0442 31.5924C39.1945 31.5924 39.3403 31.6398 39.4574 31.7268L39.8447 31.9886C39.9758 32.0751 40.1372 32.1134 40.2973 32.0957C40.4574 32.0781 40.6046 32.0059 40.7098 31.8934L50.7034 21.5638C50.8097 21.4612 50.8907 21.3388 50.941 21.2048C50.9913 21.0708 51.0097 20.9284 50.995 20.7873C50.9803 20.6462 50.9329 20.5096 50.8558 20.3869C50.7788 20.2642 50.6739 20.1582 50.5485 20.0762V20.0762Z" fill="#303030"/>
<path d="M61.5497 27.0497C56.427 30.4092 50.6883 32.8885 44.6096 34.3685C38.5766 35.7826 32.4032 36.6279 26.1847 36.8914C26.3099 37.7366 26.5351 38.5666 26.8561 39.3667C30.3681 42.2942 56.8112 37.296 61.9758 31.5124C63.0733 30.3104 61.5497 27.0497 61.5497 27.0497ZM30.1486 39.2715C29.975 39.2715 29.8052 39.224 29.6608 39.1351C29.5164 39.0462 29.4039 38.9198 29.3374 38.7719C29.271 38.624 29.2536 38.4613 29.2875 38.3044C29.3214 38.1474 29.405 38.0032 29.5278 37.89C29.6506 37.7768 29.807 37.6998 29.9773 37.6686C30.1476 37.6373 15.839 34.3072 15.9994 34.3685C16.1598 34.4297 30.7821 37.8796 30.8786 38.0126C30.9751 38.1457 31.0266 38.3022 31.0266 38.4622C31.0283 38.5689 31.0068 38.6749 30.9633 38.7738C30.9198 38.8727 30.8552 38.9626 30.7733 39.038C30.6914 39.1135 30.594 39.173 30.4866 39.2131C30.3793 39.2532 30.2644 39.2731 30.1486 39.2715Z" fill="#303030"/>
<path d="M5.16538 25.3361L5.37197 24.5149L8.729 25.2171C9.00595 25.6886 9.1772 26.2066 9.23255 26.7403C9.29663 27.3056 9.25735 27.8768 9.11634 28.4302C8.94921 29.1981 8.56632 29.9121 8.00594 30.5009C7.4728 31.0567 6.78537 31.4681 6.01755 31.6909C5.22618 31.9158 4.38449 31.9445 3.57725 31.7742C2.76823 31.6132 2.02251 31.251 1.421 30.727C0.828704 30.2236 0.403389 29.5757 0.194394 28.8586C-0.0374544 28.0796 -0.0374544 27.2575 0.194394 26.4785C0.333166 25.8955 0.582295 25.3396 0.930359 24.8362C1.25978 24.3784 1.70227 23.9992 2.22152 23.7295L2.68634 24.384C2.24128 24.6359 1.85925 24.9719 1.56546 25.3698C1.27167 25.7678 1.07281 26.2187 0.982005 26.6927C0.821883 27.3084 0.835217 27.9515 1.02074 28.5611C1.19423 29.1399 1.53837 29.663 2.01494 30.0724C2.50478 30.5088 3.11763 30.8098 3.78383 30.9412C4.42984 31.1083 5.11331 31.1083 5.75932 30.9412C6.37816 30.7529 6.93398 30.4209 7.37327 29.9772C7.82472 29.498 8.13583 28.9204 8.27709 28.2993C8.48953 27.5457 8.43524 26.7494 8.12215 26.0263L5.16538 25.3361Z" fill="#303030"/>
<path d="M12.4723 17.8507L9.46387 21.5517L10.755 23.6819L10.1611 24.4198L5.38379 16.3869L5.93899 15.6848L15.6615 17.6127L15.0546 18.3505L12.4723 17.8507ZM11.6201 17.6603L6.45546 16.5892L9.03779 20.8615L11.6201 17.6603Z" fill="#303030"/>
<path d="M11.6201 10.1749L12.3948 9.6394L17.3142 15.7086L21.3684 12.912L21.8591 13.519L17.043 16.8392L11.6201 10.1749Z" fill="#303030"/>
<path d="M19.7549 5.21236L20.62 4.85535L24.0286 11.7338L28.6381 9.80594L28.9738 10.4962L23.4993 12.793L19.7549 5.21236Z" fill="#303030"/>
<path d="M36.7724 7.94953L36.966 8.69926L30.7426 10.044L28.6768 1.92789L34.7194 0.630737L34.9002 1.36857L29.7355 2.47531L30.4715 5.35522L35.0164 4.36748L35.2101 5.10531L30.6522 6.08115L31.4269 9.09197L36.7724 7.94953Z" fill="#303030"/>
<path d="M45.6426 8.24698L43.4863 5.62887C43.2455 5.64115 43.0041 5.64115 42.7633 5.62887L40.3359 5.70028L40.4263 8.34218H39.4708L39.1738 0.0118516L42.6083 -4.88721e-05C43.5794 -0.0827073 44.5504 0.157933 45.3456 0.678278C45.6807 0.92699 45.9501 1.24261 46.1335 1.60132C46.3169 1.96002 46.4095 2.35244 46.4044 2.74896C46.442 3.33707 46.2746 3.92087 45.9266 4.41503C45.5556 4.88933 45.0314 5.24338 44.4289 5.42656L46.6884 8.21127L45.6426 8.24698ZM44.7388 4.33172C44.9708 4.13578 45.1509 3.89327 45.2651 3.62296C45.3793 3.35264 45.4245 3.06175 45.3972 2.77276C45.4039 2.48224 45.3388 2.19412 45.2068 1.93022C45.0748 1.66631 44.8794 1.43354 44.6355 1.2495C44.0404 0.877586 43.3247 0.705337 42.6083 0.761581L40.1551 0.844884L40.3101 5.01005L42.7116 4.93865C43.4439 4.96362 44.1622 4.74859 44.7388 4.33172V4.33172Z" fill="#303030"/>
<path d="M52.4725 6.03354L52.0076 8.87775L51.0651 8.74684L51.5428 5.95023L48.8701 0L49.8772 0.142806L52.1626 5.21241L56.0361 1.01154L56.9399 1.19005L52.4725 6.03354Z" fill="#303030"/>
<path d="M65.2426 5.53372L66.3659 6.87848L65.8753 7.23549L64.7519 5.85504L64.0418 7.414L63.4995 7.19979L64.2226 5.64083L62.3633 5.86694V5.29571L64.1967 5.10531L63.0605 3.76055L63.5641 3.40354L64.5583 4.76019L65.2555 3.18933L65.8107 3.40354L65.1522 4.9982L67.0115 4.76019V5.34332L65.2426 5.53372Z" fill="#303030"/>
<path d="M69.5552 15.1255C69.2503 14.6922 69.0601 14.199 69 13.6855L69.7618 13.3761C69.8189 13.8479 69.9863 14.3026 70.2524 14.709C70.5409 15.1647 70.9172 15.568 71.3628 15.899C71.8231 16.3052 72.4103 16.5675 73.0413 16.6488C73.2694 16.6682 73.4991 16.6361 73.7106 16.5553C73.9221 16.4744 74.109 16.3472 74.255 16.1846C74.3621 16.0758 74.4438 15.9477 74.4949 15.8085C74.5459 15.6693 74.5654 15.5219 74.552 15.3754C74.5093 15.0854 74.4039 14.8061 74.2421 14.5543C73.9995 14.189 73.7366 13.8355 73.4545 13.4951C73.1108 13.08 72.8001 12.6425 72.5249 12.1861C72.3145 11.8444 72.1992 11.4601 72.1892 11.0674C72.1883 10.6264 72.3681 10.2014 72.6927 9.87739C72.9741 9.56338 73.3454 9.32837 73.7644 9.19907C74.2326 9.07443 74.7294 9.07443 75.1976 9.19907C75.8008 9.38088 76.3583 9.67222 76.8374 10.0559C77.2349 10.3606 77.5866 10.7128 77.8832 11.1031C78.1575 11.4651 78.3627 11.8676 78.4901 12.2932L77.7541 12.6502C77.6257 12.2535 77.4343 11.8765 77.186 11.5316C76.9387 11.2235 76.6477 10.9474 76.3209 10.7104C75.8675 10.3061 75.2821 10.0509 74.6553 9.9845C74.425 9.96675 74.1935 10.002 73.9816 10.0872C73.7698 10.1724 73.5842 10.3048 73.4416 10.4724C73.3318 10.5796 73.2484 10.7074 73.1971 10.8471C73.1459 10.9868 73.128 11.135 73.1446 11.2816C73.1749 11.5817 73.281 11.8711 73.4545 12.1266C73.6353 12.4003 73.8935 12.7573 74.2421 13.1857C74.5877 13.5913 74.8985 14.021 75.1718 14.471C75.3866 14.8115 75.5064 15.1959 75.5204 15.5896C75.5213 16.0306 75.3414 16.4557 75.0168 16.7797C74.7344 17.098 74.3575 17.3337 73.9322 17.458C73.4649 17.588 72.9664 17.588 72.4991 17.458C71.8917 17.2767 71.3298 16.9854 70.8464 16.6012C70.3252 16.1831 69.8881 15.6835 69.5552 15.1255V15.1255Z" fill="#303030"/>
<path d="M82.5434 16.863L80.7228 14.4829L81.3942 14.0426L85.5905 19.5644L84.9191 20.0047L83.0986 17.6246L76.3587 21.9683L75.8164 21.2424L82.5434 16.863Z" fill="#303030"/>
<path d="M79.6518 26.6452C79.8823 25.926 80.3301 25.2821 80.943 24.7887C81.5425 24.2938 82.2728 23.9532 83.0605 23.801C83.8634 23.6311 84.7008 23.6598 85.4879 23.8843C86.2475 24.1157 86.9284 24.5259 87.4633 25.0743C88.0196 25.6641 88.398 26.3781 88.5608 27.145C88.7747 27.8979 88.7747 28.6889 88.5608 29.4418C88.324 30.1583 87.8772 30.8008 87.2697 31.2983C86.6536 31.8065 85.9053 32.1591 85.0975 32.3217C84.2898 32.4844 83.4501 32.4516 82.6602 32.2265C81.8948 32.0063 81.2108 31.5943 80.6847 31.0365C80.131 30.4498 79.7528 29.7402 79.5872 28.9777C79.39 28.2081 79.4122 27.4045 79.6518 26.6452V26.6452ZM81.3432 30.4295C81.7743 30.8821 82.3329 31.2157 82.9572 31.3935C83.6006 31.5655 84.2806 31.5859 84.9348 31.4528C85.589 31.3198 86.1964 31.0375 86.7016 30.6319C87.1781 30.2277 87.5301 29.7145 87.7216 29.1443C87.9016 28.5422 87.9193 27.9087 87.773 27.2989C87.6267 26.6892 87.3209 26.1216 86.8823 25.6456C86.4323 25.1909 85.8565 24.8577 85.2167 24.6816C84.5652 24.5222 83.8798 24.5222 83.2283 24.6816C82.5709 24.7979 81.9624 25.0825 81.4723 25.5028C80.9914 25.9083 80.6389 26.4265 80.4523 27.0022C80.277 27.6065 80.277 28.2425 80.4523 28.8468C80.5937 29.4372 80.901 29.983 81.3432 30.4295V30.4295Z" fill="#303030"/>
<path d="M78.6711 40.4616L82.0152 39.2716C82.0152 39.0574 82.0927 38.8432 82.1572 38.6171L82.7899 36.4631L80.0526 35.8086L80.298 34.9636L89.0262 37.1176L88.1482 40.1284C87.9505 41.0069 87.4195 41.7917 86.6505 42.3419C86.2972 42.5681 85.8919 42.7158 85.4663 42.7736C85.0407 42.8314 84.6064 42.7977 84.1973 42.6751C83.5742 42.5506 83.0159 42.2339 82.6144 41.7773C82.213 41.3208 81.9925 40.7518 81.9894 40.1641L78.4258 41.3542L78.6711 40.4616ZM82.9965 40.7949C83.1478 41.0478 83.3529 41.2699 83.5997 41.4478C83.8465 41.6258 84.1297 41.7559 84.4325 41.8304C84.7352 41.9049 85.0511 41.9222 85.3613 41.8812C85.6715 41.8403 85.9694 41.742 86.2373 41.5922C86.8072 41.1703 87.1961 40.5757 87.3348 39.9142L87.9546 37.7721L83.5775 36.6892L82.9578 38.8313C82.7196 39.4696 82.7333 40.1649 82.9965 40.7949V40.7949Z" fill="#303030"/>
<path d="M74.0354 48.1255L73.377 47.6614L77.2504 42.9607L84.4552 47.9946L80.7108 52.5525L80.0523 52.0884L83.2156 48.2445L80.6333 46.4475L77.8056 49.8868L77.1601 49.4346L80.0523 45.9953L77.3796 44.1269L74.0354 48.1255Z" fill="#303030"/>
<path d="M71.0143 57.6103L69.168 57.7055V57.1342L71.0143 57.1223L70.0201 55.7062L70.5237 55.4087L71.505 56.8367L72.3055 55.2421L72.8607 55.5158L71.9827 57.0152L73.8291 56.92V57.5032H71.9569L72.9511 58.9193L72.4475 59.2168L71.4662 57.7888L70.6141 59.3358L70.0718 59.0502L71.0143 57.6103Z" fill="#303030"/>
<path d="M54.2293 56.6581L55.7916 57.4554C56.0535 56.9917 56.419 56.5844 56.8641 56.2603C57.3092 55.9362 57.8238 55.7027 58.3739 55.5752C58.887 55.4277 59.4268 55.3751 59.962 55.4205C60.4265 55.4533 60.8726 55.6014 61.2532 55.8489C61.5972 56.0879 61.8503 56.4212 61.9762 56.8009C62.1319 57.2707 62.1045 57.7758 61.8988 58.229C61.5748 58.8447 61.138 59.4043 60.6076 59.8831C61.0333 60.094 61.4281 60.3539 61.7826 60.6567C62.026 60.8886 62.2073 61.1698 62.3119 61.4778C62.3781 61.7179 62.3822 61.969 62.3239 62.2108C62.2656 62.4526 62.1465 62.6785 61.9762 62.8702C61.6316 63.3279 61.1173 63.6538 60.5301 63.7865C60.0146 63.9677 59.4447 63.9677 58.9291 63.7865C58.6998 63.6956 58.4966 63.557 58.3353 63.3814C58.174 63.2059 58.059 62.9983 57.9995 62.7749C57.8641 62.3821 57.8964 61.9565 58.0898 61.5849C58.3862 61.0439 58.7741 60.5498 59.239 60.1211L56.1273 58.5265C56.0085 59.0869 55.9824 59.6606 56.0498 60.2282H55.2622C55.2092 59.5293 55.2967 58.8272 55.5204 58.1576L53.8936 57.3245L54.2293 56.6581ZM56.4759 57.8482L59.8975 59.5975C60.3459 59.2028 60.7171 58.7399 60.995 58.229C61.1368 57.8839 61.1368 57.503 60.995 57.1579C60.9364 56.9517 60.8231 56.7622 60.6654 56.6064C60.5076 56.4506 60.3103 56.3334 60.0911 56.2654C59.5551 56.0985 58.9745 56.0985 58.4385 56.2654C58.0004 56.3719 57.5931 56.5656 57.2451 56.8329C56.8971 57.1002 56.6169 57.4346 56.4242 57.8125L56.4759 57.8482ZM61.3307 62.6083C61.415 62.4768 61.4679 62.3302 61.4857 62.1783C61.5035 62.0264 61.4859 61.8728 61.434 61.7277C61.3549 61.4927 61.2127 61.2799 61.0208 61.1089C60.6921 60.8534 60.3325 60.6337 59.9491 60.4544C59.5577 60.8111 59.2151 61.2108 58.9291 61.6444C58.773 61.9148 58.736 62.2302 58.8258 62.525C58.8668 62.6612 58.9386 62.7878 59.0365 62.8965C59.1344 63.0053 59.2562 63.0936 59.3939 63.1558C59.7226 63.27 60.0852 63.27 60.4139 63.1558C60.765 63.0695 61.0715 62.8713 61.279 62.5964L61.3307 62.6083Z" fill="#303030"/>
<path d="M38.4893 65.8334L38.67 57.5031H39.5867L39.4447 64.1673L43.1116 58.6217H43.5635L46.998 64.2625L47.1272 57.634H48.0439L47.876 65.9643H47.0884L43.2924 59.7403L39.2769 65.8453L38.4893 65.8334Z" fill="#303030"/>
<path d="M33.9966 57.1222C34.587 57.6409 35.0095 58.3005 35.217 59.0276C35.4245 59.7546 35.4087 60.5205 35.1716 61.2398C34.9594 61.9763 34.5357 62.6464 33.945 63.1796C33.3709 63.6996 32.6511 64.0622 31.8662 64.2268C31.0381 64.399 30.1762 64.3744 29.3613 64.1554C28.5492 63.9726 27.802 63.5996 27.1922 63.0725C26.6105 62.5604 26.1948 61.9094 25.9914 61.1922C25.7928 60.4507 25.8075 59.6744 26.0339 58.9398C26.2603 58.2052 26.6907 57.5377 27.2825 57.0032C27.8464 56.4845 28.5509 56.1146 29.3226 55.9322C30.1463 55.7605 31.0039 55.7851 31.8145 56.0036C32.635 56.1953 33.3871 56.5808 33.9966 57.1222V57.1222ZM29.5937 56.7057C28.9621 56.8412 28.3848 57.1382 27.9281 57.5625C27.4525 57.9992 27.1135 58.546 26.9468 59.1453C26.7668 59.7409 26.7668 60.3705 26.9468 60.9661C27.0991 61.5455 27.4258 62.0735 27.8894 62.4893C28.3755 62.9275 28.9758 63.2431 29.6325 63.4057C30.2891 63.5598 30.9771 63.5598 31.6338 63.4057C32.2659 63.2624 32.8452 62.9667 33.3123 62.5488C33.7854 62.1104 34.124 61.5643 34.2936 60.9661C34.4741 60.3665 34.4741 59.733 34.2936 59.1334C34.1283 58.5561 33.7984 58.0302 33.3381 57.6101C32.8494 57.1714 32.2436 56.8594 31.5821 56.7057C30.9315 56.5399 30.2443 56.5399 29.5937 56.7057V56.7057Z" fill="#303030"/>
<path d="M19.8188 51.1721L20.1675 54.4447C20.3889 54.5319 20.6045 54.6312 20.813 54.7422L22.9176 55.8608L24.3379 53.5521L25.1772 53.9925L20.6581 61.1685L17.7142 59.6095C16.8441 59.2066 16.1577 58.5317 15.7775 57.7054C15.6371 57.3331 15.5898 56.9364 15.639 56.5449C15.6882 56.1534 15.8326 55.7772 16.0616 55.4443C16.3617 54.9228 16.8374 54.5051 17.4173 54.2543C18.0061 54.0294 18.6575 53.9836 19.2766 54.1234L18.9021 50.6246L19.8188 51.1721ZM18.3469 54.9326C18.0437 55.0027 17.7589 55.1285 17.5096 55.3024C17.2603 55.4764 17.0517 55.6949 16.8962 55.9449C16.7407 56.1949 16.6415 56.4712 16.6046 56.7574C16.5677 57.0435 16.5938 57.3336 16.6813 57.6102C16.984 58.2261 17.5086 58.7265 18.1661 59.0264L20.2449 60.1331L22.5045 56.563L20.4257 55.4562C19.8282 55.0436 19.0925 54.8372 18.3469 54.8731V54.9326Z" fill="#303030"/>
<path d="M12.1759 45.5907L12.7569 45.0552L17.2115 49.2798L10.7556 55.0873L6.45605 50.9935L7.04999 50.458L10.704 53.921L12.9119 51.8622L9.70979 48.7919L10.3295 48.2445L13.5962 51.3386L15.9978 49.1846L12.1759 45.5907Z" fill="#303030"/>
<path d="M2.58235 40.9139L2.89223 39.2716L3.49908 39.3549L3.15047 41.0448L4.86772 40.4617L5.0743 40.9853L3.33123 41.5327L4.76442 42.6513L4.35125 43.0798L2.9697 41.8897L2.64691 43.5796L2.02715 43.4725L2.38868 41.7826L0.658518 42.3538L0.464844 41.8897L2.195 41.3304L0.761812 40.2236L1.1879 39.7952L2.58235 40.9139Z" fill="#303030"/>
</g>
<defs>
<clipPath id="clip0_1374_36">
<rect width="89" height="66" fill="white"/>
</clipPath>
</defs>
</svg>
